<?xml version="1.0" standalone="no"?><!DOCTYPE svg PUBLIC "-//W3C//DTD SVG 1.1//EN" "http://www.w3.org/Graphics/SVG/1.1/DTD/svg11.dtd"><svg t="1538985158968" class="icon" style="" viewBox="0 0 1024 1024" version="1.1" xmlns="http://www.w3.org/2000/svg" p-id="9528" xmlns:xlink="http://www.w3.org/1999/xlink" width="64" height="64"><defs><style type="text/css"></style></defs><path d="M522.36558 961.866894c-252.502851 0-457.93464-205.426673-457.93464-457.9285 0-252.514107 205.431789-457.952037 457.93464-457.952037 252.520247 0 457.951013 205.438952 457.951013 457.952037C980.317617 756.440222 774.885827 961.866894 522.36558 961.866894zM522.36558 70.76367c-238.842737 0-433.157327 194.319707-433.157327 433.174724 0 238.841713 194.314591 433.150164 433.157327 433.150164 238.847853 0 433.174724-194.308451 433.174724-433.150164C955.540304 265.083377 761.213433 70.76367 522.36558 70.76367z" p-id="9529" fill="#2c2c2c"></path><path d="M760.753969 760.982678 314.144258 760.982678l0-12.389168c0-82.619696 54.999638-155.398256 140.348492-186.073906l1.402953-0.641613c3.508917-1.572822 7.477298-2.582825 11.30037-3.562129 2.468215-0.738827 4.972245-1.458211 7.500834-2.12336 6.944156-2.287089 10.332323-4.919033 10.332323-13.913894 0-9.871835-9.727549-16.889669-15.510252-20.198018-0.37453-0.13303-5.202489-2.783393-5.202489-2.783393-48.054459-25.836435-77.993329-78.815043-77.993329-138.194432 0-84.720543 61.950957-153.640216 138.098241-153.640216 76.148307 0 138.092102 68.919672 138.092102 153.640216 0 59.512419-35.71441 110.585631-68.88795 132.859937-20.360723 13.670348-21.826098 17.700127-21.826098 22.703071 0 15.619746 25.045419 18.85544 25.299199 18.885116l1.633197 0.301875c95.396697 24.403806 162.02314 103.660918 162.02314 192.741769L760.754992 760.982678zM339.405595 736.205365l396.074757 0c-5.855358-72.41017-62.621223-135.503137-142.145417-156.155503-16.550954-2.165316-46.312792-13.774725-46.312792-43.385113 0-19.726274 13.585413-30.379914 32.786731-43.276642 27.89942-18.72855 57.927317-61.847603 57.927317-112.286366 0-71.055312-50.825572-128.86188-113.314789-128.86188-62.475913 0-113.313765 57.806567-113.313765 128.86188 0 49.481971 25.52842 95.189989 65.065901 116.435872 0.145309 0.084934 3.702322 2.056845 4.79112 2.595105 18.898419 10.725272 28.842909 25.545816 28.842909 42.144866 0 18.904559-9.449209 31.576159-28.092825 37.669948-2.927679 0.791016-5.129834 1.427512-7.331989 2.092661-1.245364 0.326435-2.359744 0.604774-3.363607 0.864694l-5.952572 2.15406C392.820132 610.181113 344.674599 668.671249 339.405595 736.205365z" p-id="9530" fill="#2c2c2c"></path></svg>